#!OML:ASF F:\VICON\USERDATA\INSTALL\rory3\rory3.ASF
:FULLY-SPECIFIED
:DEGREES
88
root 0.35871318576486266 17.902691741902068 36.023507305517434 -3.4367688767391855 -3.61541598464384 -7.055053933943771
lfemur -20.212798012568427 -0.7923097804243624 -12.769409382787366
ltibia 67.20523670467287
lfoot -8.519905905250107 -3.5967908929253634
ltoes -23.02965604978914
rfemur -7.9796984182834265 0.5847507222527057 34.291498000730165
rtibia 31.96375987314309
rfoot -7.137948256616851 -7.756020243551507
rtoes 9.003480127366448
lowerback 11.288344160083058 1.2719576127016308 5.024790970813907
upperback 0.1752508900773952 2.3712451874314437 2.2486587506706104
thorax -6.302762539110446 1.0570708359732248 -1.0487528910877966
lowerneck -16.12730847965814 -3.0998803779722794 -1.7348164411913618
upperneck 21.56382890070857 -3.9744136330429374 0.7431082633244078
head 9.528201933122373 -1.883645034045079 0.15511665185652995
lclavicle 3.0538883968252276e-16 6.017505052965491e-17
lhumerus -34.00453586408574 3.407175137593402 79.85710248430986
lradius 33.134412979652225
lwrist 10.710283271393786
lhand -29.58832067864189 17.58038860380261
lfingers 7.125020000000001
lthumb -2.8098909981204514 47.266296344604605
rclavicle 3.006580645750098e-16 5.642661817840718e-17
rhumerus -30.227152756679182 -17.651680426317498 -77.73278277238833
rradius 26.91152020360338
rwrist 3.1872431223014113
rhand -17.645748093116406 20.657048021566105
rfingers 7.125020000000001
rthumb 8.437254387098026 -8.930191452571945
89
root 0.37058853628247607 17.84816458742554 36.958144735384444 -3.0882601927816737 -4.144104353734673 -7.134012628100374
lfemur -22.802320785970725 -1.138212573791057 -12.550025518883773
ltibia 62.65733387954718
lfoot -7.8429689261626345 -2.5074200544216403
ltoes -21.02134170347182
rfemur -6.8641303018351465 0.6137695380357884 34.299378975950184
rtibia 32.79097050753884
rfoot -6.714974159361603 -7.921167596576762
rtoes 9.332771026874948
lowerback 11.48777208003082 1.6040771529216278 5.311632096983815
upperback 0.18121767519525545 2.8384277919213226 2.17770252775238
thorax -6.290753423821896 1.2506612504174748 -1.623132095593913
lowerneck -16.221544173970496 -3.1448813343159623 -1.6497049525139387
upperneck 21.497025836531865 -4.06996100543538 0.7069482086203009
head 9.517632923541921 -1.9211196733443334 0.10599257177669374
lclavicle 3.073482772376722e-16 6.127834630526071e-17
lhumerus -34.23529459208455 3.2044582729763507 79.88904791753441
lradius 33.42774036920748
lwrist 10.684281385028214
lhand -29.541750725493564 17.650126744946775
lfingers 7.125020000000001
lthumb -2.750993303965735 47.424476608861184
rclavicle 3.009207189768583e-16 5.661483213291349e-17
rhumerus -29.66220238619625 -16.968998833250055 -78.18573287725303
rradius 27.86188793138892
rwrist 2.2422586541082836
rhand -17.972985407082323 20.967822480391003
rfingers 7.125020000000001
rthumb 8.132544092996502 -8.677670610210589
90
root 0.3945446735032313 17.820019625129802 37.90665049994821 -2.3190659846320303 -4.363465038600334 -7.533944121082073
lfemur -24.537782820308898 -1.962637206272127 -11.998567695510443
ltibia 55.9734350045828
lfoot -8.256926797094943 -1.8127597986296444
ltoes -20.491278854723035
rfemur -5.667045644722682 0.6200706412180561 34.753049284100285
rtibia 33.016784606327796
rfoot -6.457052005165181 -8.253125642711531
rtoes 8.977102621051705
lowerback 11.406815250330121 1.8721555938378975 5.826530010273536
upperback 0.156023326290605 3.228733291844698 2.1780596900887614
thorax -6.228304020107456 1.4066876697833288 -2.037063654882874
lowerneck -16.364160331257573 -3.176497687602756 -1.5650734666093418
upperneck 21.34962964360387 -4.14149907913754 0.6496797815643365
head 9.48506142899525 -1.9507348386143843 0.04696829305152764
lclavicle 3.064430665892358e-16 6.059383841862798e-17
lhumerus -34.01283081957163 3.2409314852313416 80.10398098575156
lradius 33.34262840502659
lwrist 10.64549334387756
lhand -29.429390050576473 17.92889144790473
lfingers 7.125020000000001
lthumb -2.653848090694665 47.777223630606585
rclavicle 3.0070994005065943e-16 5.646350086692285e-17
rhumerus -29.296415809165843 -16.564228880242613 -78.57829521355788
rradius 28.8457241391471
rwrist 1.3173050611609276
rhand -18.229300317768114 21.714988769370137
rfingers 7.125020000000001
rthumb 7.871901339617701 -7.993017979620673
91
root 0.42878531262418806 17.806243989736476 38.768782601270686 -1.4411460326485859 -4.835407124132332 -7.485315305927553
lfemur -24.84000550980815 -3.3095619544658454 -11.473466086625805
ltibia 46.92494364345444
lfoot -7.959148883912589 -1.4541791177511654
ltoes -20.132866770760238
rfemur -4.1904771258273605 1.072355043078389 34.7636909990684
rtibia 32.32255248865948
rfoot -5.969151478207073 -8.775856428058088
rtoes 8.186232310157532
lowerback 10.981865705167445 2.193186300344092 5.951785923907287
upperback 0.09919068275002033 3.6212199718767017 2.13501196557176
thorax -6.104532888362517 1.5935988485117056 -2.2838468397504963
lowerneck -16.51642213868578 -3.1940912169943907 -1.4823393657091277
upperneck 21.183419767620613 -4.184297616057178 0.5787481883419177
head 9.445575662575358 -1.9702779807699438 -0.015324400369605695
lclavicle 3.0747102567616725e-16 6.089616663590697e-17
lhumerus -33.3641889276544 3.4036201874004273 80.52301510644143
lradius 32.86389998515939
lwrist 10.596236107680156
lhand -29.282180057424142 18.29027247875699
lfingers 7.125020000000001
lthumb -2.554592532096372 48.13109557281198
rclavicle 3.007469434759656e-16 5.64900206500262e-17
rhumerus -28.905873787163625 -16.241349450839042 -78.72582764156802
rradius 29.50911688447241
rwrist 0.7049667764313758
rhand -18.39713819469261 22.69538123940611
rfingers 7.125020000000001
rthumb 7.693184923530286 -7.054930045753099
